<svg id="Layer_1" enable-background="new 0 0 512 512" height="512" viewBox="0 0 512 512" width="512" xmlns="http://www.w3.org/2000/svg"><g clip-rule="evenodd" fill-rule="evenodd"><path d="m303.854 361.198-16.158-12.416-18.064 12.416v41.179l18.064 8.458 16.158-8.458z" fill="#9b9b9b"/><path d="m352.784 361.198v41.179l18.036 13.186 16.187-13.186v-41.179l-16.614-11.277z" fill="#9b9b9b"/><path d="m287.696 361.198v41.179h11.123 5.035v-41.179z" fill="#838383"/><path d="m370.82 361.198v41.179h11.152 5.035v-41.179z" fill="#838383"/><path d="m391.388 402.377h-92.569-38.433-4.011-41.505l-12.005-14.324c-14.537-17.315-38.604 5.126-25.176 21.131l16.414 19.564c3.243 3.845 8.648 6.493 13.683 6.493h48.589 161.754 48.617c5.007 0 10.44-2.648 13.655-6.493l16.414-19.564c13.427-16.005-10.639-38.445-25.148-21.131l-12.033 14.324h-29.813-11.692z" fill="#ececec"/><path d="m271.765 126.994v44.455l17.296 11.79 18.435-11.79v-44.455l-17.866-15.663z" fill="#9b9b9b"/><path d="m330.254 171.648h-100.136c-12.318.114-18.235 3.19-25.688 11.619l-17.979 20.276 92.996 23.238 90.122-23.238c0-20.162-14.793-31.838-39.315-31.895z" fill="#ececec"/><path d="m478.836 304.783c-2.731-23.067-13.37-48.897-29.842-68.689-15.845-19.08-37.124-32.55-61.931-32.55h-17.495-183.118l-5.405 6.123c-8.449 9.512-9.274 11.363-19.117 11.363h-80.336l-43.099-63.08c-2.447-3.56-7.852-3.446-11.038-.541l-17.808 16.147c-3.186 2.905-1.735 6.92-.541 11.049l16.101 51.488-15.446 36.908c-2.048 5.525.228 12.416 6.799 14.866l12.233 4.613c5.234 1.965 9.302 1.851 15.191-2.535l31.947-23.779h67.364c18.576.285 23.469 3.417 31.321 23.153l13.769 34.487c10.782 26.997 35.275 37.392 55.871 37.392h41.022 53.283 45.545 41.022 17.751c29.244 0 39.599-25.744 35.957-56.415z" fill="#03bed7"/><path d="m254.213 236.094c-4.409 0-7.994 3.588-7.994 8.002v52.684c0 4.386 3.584 8.002 7.994 8.002h62.158c4.381 0 7.994-3.617 7.994-8.002v-52.684c0-4.414-3.613-8.002-7.994-8.002z" fill="#a6e7f0"/><path d="m448.995 236.094h-70.437c-7.027 0-12.801 6.351-12.801 14.097v40.467c0 7.775 5.746 14.125 12.801 14.125h100.278c-2.731-23.067-13.37-48.897-29.841-68.689z" fill="#a6e7f0"/><path d="m489.021 95.697h-162.693v31.297h162.693c8.591 0 15.618-7.063 15.618-15.663-.001-8.6-7.027-15.634-15.618-15.634z" fill="#9b9b9b"/><path d="m252.933 95.697h-162.693c-8.591 0-15.618 7.034-15.618 15.634s7.027 15.663 15.618 15.663h162.693z" fill="#9b9b9b"/><path d="m265.82 76.36c-7.083 0-12.887 5.781-12.887 12.872v6.465 31.297h18.832 35.73 18.832v-31.297-6.465c0-7.091-5.803-12.872-12.887-12.872z" fill="#ececec"/><path d="m448.995 236.094c-15.845-19.08-37.124-32.55-61.931-32.55h-17.495-27.395c6.23 0 12.233.854 17.979 2.421 17.182 4.699 32.089 15.834 43.952 30.13h44.89z" fill="#0099b1"/><path d="m448.995 236.094h-44.891c16.471 19.792 27.111 45.622 29.842 68.689h44.891c-2.732-23.067-13.371-48.897-29.842-68.689z" fill="#6bd9e7"/><path d="m478.836 304.783h-44.891c3.641 30.614-6.657 56.33-35.787 56.415h26.968 17.751c29.246 0 39.601-25.744 35.959-56.415z" fill="#0099b1"/><path d="m330.254 171.648h-23.071-14.508c4.068.37 7.795 1.082 11.208 2.136 14.082 4.357 22.132 14.609 22.132 29.503h17.495c1.991 0 3.954.085 5.917.256h20.141c.001-20.162-14.792-31.838-39.314-31.895z" fill="#cecece"/><path d="m298.591 244.096v52.684c0 4.386-3.584 8.002-7.994 8.002h25.774c4.381 0 7.994-3.617 7.994-8.002v-52.684c0-4.414-3.613-8.002-7.994-8.002h-25.774c4.41 0 7.994 3.588 7.994 8.002z" fill="#6bd9e7"/><path d="m459.634 402.377h-29.358c-.284 14.068-16.414 33.063-32.516 32.864h20.369 48.617c5.007 0 10.44-2.648 13.655-6.493l16.414-19.564c13.427-16.005-10.639-38.445-25.148-21.131z" fill="#cecece"/><path d="m489.021 95.697h-52.259c8.591 0 15.618 7.034 15.618 15.634s-7.027 15.663-15.618 15.663h52.259c8.591 0 15.618-7.063 15.618-15.663-.001-8.6-7.027-15.634-15.618-15.634z" fill="#838383"/><path d="m313.441 76.36h-28.078c.768 0 1.508.057 2.247.199 6.031 1.054 10.639 6.351 10.639 12.673v6.465 31.297h27.879.199v-31.098-.199-6.465c.001-7.091-5.802-12.872-12.886-12.872z" fill="#cecece"/></g><path d="m316.371 312.344c8.577 0 15.554-6.982 15.554-15.563v-52.685c0-8.582-6.978-15.563-15.554-15.563h-62.158c-8.577 0-15.555 6.982-15.555 15.563v52.685c0 8.582 6.978 15.563 15.555 15.563zm-62.591-15.563v-52.685c0-.239.198-.442.433-.442h62.158c.196 0 .433.197.433.442v52.685c0 .211-.227.441-.433.441h-62.158c-.219 0-.433-.219-.433-.441z"/><path d="m499 380.202c-8.942-7.505-23.261-8.828-33.325 3.165l-9.767 11.65h-61.34v-26.058h48.112c14.467 0 26.218-5.548 33.984-16.045 6.701-9.058 10.243-21.686 10.243-36.521 0-3.465-.201-7.02-.58-10.63.042-.321.071-.647.071-.98 0-.967-.188-1.887-.519-2.737-3-21.738-12.414-45.159-26.047-63.9-1.289-1.771-2.605-3.488-3.946-5.154-.57-1.264-1.473-2.343-2.603-3.123-18.717-21.801-41.986-33.687-66.418-33.687h-10.558c-3.396-19.809-20.454-31.836-46.224-31.895h-15.226v-29.561h11.272 162.693c12.781 0 23.178-10.405 23.178-23.195s-10.398-23.195-23.178-23.195h-155.188c-.575-10.756-9.488-19.337-20.392-19.337h-47.622c-10.904 0-19.817 8.581-20.392 19.337h-155.187c-12.781 0-23.179 10.405-23.179 23.195s10.398 23.195 23.179 23.195h162.693 11.272v29.561h-34.157c-13.947.129-22.13 3.827-31.281 14.14l-23.374 26.417c-.666.749-1.284 1.451-1.864 2.11-5.913 6.713-5.913 6.713-11.6 6.713h-76.346l-40.835-59.766c-2.256-3.321-5.771-5.418-9.899-5.906-4.48-.526-9.144.977-12.472 4.012l-17.823 16.16c-6.426 5.858-4.179 13.641-2.972 17.822l.249.87c.019.068.039.135.06.203l15.278 48.828-14.383 34.393c-.044.106-.086.213-.126.321-3.672 10.043 1.274 20.825 11.247 24.542l12.228 4.584c8.221 3.086 14.909 2.033 22.363-3.519l29.938-22.283h64.803c15.198.211 17.544 1.265 24.382 18.39l13.742 34.493c12.41 31.076 40.64 42.148 62.921 42.148h17.985v26.058h-43.867l-9.747-11.652c-10.067-11.994-24.395-10.666-33.344-3.155-9.095 7.632-13.383 22.154-3.415 34.034l16.427 19.58c4.775 5.662 12.233 9.179 19.462 9.179h120.05c4.176 0 7.561-3.385 7.561-7.561s-3.385-7.561-7.561-7.561h-120.05c-2.719 0-6.043-1.601-7.891-3.792l-16.414-19.564c-4.442-5.295-1.115-10.495 1.551-12.732 1.933-1.622 6.976-4.743 12.033 1.283l12.005 14.353c1.437 1.718 3.561 2.71 5.8 2.71h244.765c2.236 0 4.357-.99 5.794-2.703l12.031-14.35c5.06-6.029 10.091-2.917 12.02-1.3 2.666 2.237 5.991 7.438 1.544 12.739l-16.422 19.574c-1.832 2.191-5.136 3.782-7.855 3.782h-105.342c-4.176 0-7.561 3.385-7.561 7.561s3.385 7.561 7.561 7.561h105.342c7.144 0 14.78-3.613 19.447-9.194l16.414-19.564c9.972-11.888 5.686-26.412-3.408-34.043zm-119.554 14.615h-19.101v-25.858h19.101zm90.275-97.595h-91.162c-2.841 0-5.241-3.006-5.241-6.564v-40.467c0-3.543 2.4-6.536 5.241-6.536h66.563c12.369 15.867 20.905 35.424 24.599 53.567zm27.157-185.691c0 4.452-3.614 8.074-8.057 8.074h-155.131v-16.147h155.132c4.442-.001 8.056 3.621 8.056 8.073zm-414.894 0c0-4.452 3.614-8.074 8.057-8.074h155.132v16.147h-155.132c-4.443 0-8.057-3.622-8.057-8.073zm178.31-22.099c0-2.929 2.389-5.311 5.326-5.311h47.621c2.937 0 5.326 2.382 5.326 5.311v30.173h-58.274v-30.173zm18.833 45.294h20.609v29.561h-20.609zm-83.918 186.481-13.742-34.492c-8.835-22.129-16.345-27.607-38.266-27.909-.035 0-.07-.001-.105-.001h-67.364c-1.626 0-3.21.525-4.514 1.496l-31.949 23.78c-3.856 2.873-5.244 2.532-8.021 1.49l-12.246-4.59c-2.644-.985-2.864-3.577-2.378-5.068l15.361-36.732c.687-1.643.772-3.475.241-5.175l-16.074-51.374-.24-.836c-.263-.912-.631-2.187-.769-2.998l17.208-15.603c.043-.04.102-.074.165-.102l42.635 62.4c1.409 2.062 3.745 3.295 6.243 3.295h80.336c11.912 0 15.198-3.042 22.947-11.839.567-.644 1.172-1.33 1.832-2.074l3.161-3.573h60.361c4.176 0 7.561-3.385 7.561-7.561s-3.385-7.561-7.561-7.561h-46.982l6.836-7.726c5.948-6.704 9.687-8.952 20.033-9.047h100.147c10.263.024 26.537 2.433 30.725 16.774h-76.822c-4.176 0-7.561 3.385-7.561 7.561s3.385 7.561 7.561 7.561h85.4 17.495c16.639 0 31.451 6.722 43.861 17.229h-52.168c-11.228 0-20.362 9.716-20.362 21.658v40.467c0 11.958 9.134 21.686 20.362 21.686h93.124c.068 1.369.103 2.72.103 4.049 0 11.573-2.517 21.092-7.278 27.528-4.937 6.673-12.077 9.917-21.828 9.917h-53.971c-.548-.126-1.115-.199-1.701-.199h-34.222c-.586 0-1.154.073-1.701.199h-45.528c-.548-.126-1.115-.199-1.701-.199h-34.222c-.586 0-1.154.073-1.701.199h-23.845c-17.328 0-39.269-8.573-48.876-32.63zm101.084 47.751v25.858h-19.101v-25.858zm15.122 0h33.809v26.058h-33.809z"/></svg>