<svg id="Capa_1" enable-background="new 0 0 428.322 428.322" height="512" viewBox="0 0 428.322 428.322" width="512" xmlns="http://www.w3.org/2000/svg"><g><path d="m235.951 257.951c-4.603-1.926-9.553-2.885-14.542-2.819-12.91 0-23.377 5.807-23.377 12.969s10.467 12.965 23.377 12.965c4.989.065 9.938-.893 14.542-2.814 2.174-.965 3.574-3.122 3.571-5.5v-9.304c.006-2.379-1.396-4.535-3.571-5.497z" fill="#d5d6db"/><path d="m264.037 158.534c-3.338-1.396-6.928-2.091-10.546-2.043-9.359 0-16.951 4.209-16.951 9.398s7.593 9.398 16.951 9.398c3.618.046 7.207-.65 10.546-2.043 1.575-.7 2.589-2.263 2.587-3.987v-6.737c.005-1.724-1.01-3.288-2.587-3.986z" fill="#d5d6db"/><path d="m223.284 134.564c-.613-.562-1.414-.872-2.246-.871h-21.932c-1.833-.003-3.322 1.48-3.325 3.314-.001.42.078.837.233 1.227l23.589 59.851h73.132z" fill="#029bc5"/><path d="m398.663 248.217h-206.819l-110.19-23.921-50.859-22.689v-13.494l342.944 3.522c10.232.082 20.262 2.863 29.075 8.063 3.848 2.3 7.392 5.074 10.551 8.256 2.815 2.793 5.215 5.974 7.128 9.448 2.122 3.903 7.726 8.256 7.83 13.029.009-.001-3.637 18.909-29.66 17.786z" fill="#e1e6e9"/><path d="m199.408 228.659-124.234 70.906c-1.645 1.069-2.111 3.269-1.042 4.913.656 1.009 1.778 1.617 2.981 1.616h22.437c4.316-.001 8.587-.885 12.549-2.597l210.415-77.55z" fill="#029bc5"/><path d="m36.988 124.072c-.827-1.158-2.163-1.845-3.586-1.845h-17.867c-2.434-.001-4.408 1.971-4.41 4.405 0 .463.072.923.215 1.363l19.454 60.119 52.358.539z" fill="#029bc5"/><path d="m37.853 198.095-37.231 18.045c-.541.255-.773.901-.518 1.442.184.39.582.634 1.013.621h17.382c.135 0 .27-.025.396-.074l51.17-20.018z" fill="#029bc5"/><path d="m413.374 207.953c-3.158-3.182-6.703-5.955-10.551-8.256-6.469 3.108-12.01 7.858-16.071 13.776-.718 1.26-.279 2.864.981 3.583.392.223.834.342 1.285.345h31.484c-1.913-3.474-4.313-6.655-7.128-9.448z" fill="#029bc5"/><path d="m345.519 202.473h19.439v35.57h-19.439z" fill="#d5d6db"/><g fill="#3a556a"><path d="m328.889 206.816c-2.368 0-4.289 1.92-4.289 4.289v3.838c.08 2.367 2.064 4.221 4.432 4.141 2.254-.077 4.064-1.886 4.141-4.141v-3.838c0-2.367-1.917-4.287-4.284-4.289z"/><path d="m309.564 206.816c-2.368 0-4.289 1.92-4.289 4.289v3.838c.08 2.367 2.064 4.221 4.432 4.141 2.254-.077 4.064-1.886 4.141-4.141v-3.838c-.001-2.367-1.918-4.287-4.284-4.289z"/><path d="m290.233 206.816c-2.367.003-4.284 1.922-4.284 4.289v3.838c.08 2.367 2.064 4.221 4.432 4.141 2.254-.077 4.064-1.886 4.141-4.141v-3.838c0-2.369-1.92-4.289-4.289-4.289z"/><path d="m270.908 206.816c-2.367.003-4.284 1.922-4.284 4.289v3.838c.08 2.367 2.064 4.221 4.432 4.141 2.254-.077 4.064-1.886 4.141-4.141v-3.838c-.001-2.369-1.921-4.289-4.289-4.289z"/><path d="m251.582 206.816c-2.367.003-4.284 1.922-4.284 4.289v3.838c0 2.366 1.918 4.284 4.284 4.284s4.284-1.918 4.284-4.284v-3.838c.003-2.366-1.913-4.286-4.279-4.289-.002 0-.003 0-.005 0z"/><path d="m232.257 206.816c-2.367.003-4.284 1.922-4.284 4.289v3.838c0 2.366 1.918 4.284 4.284 4.284s4.284-1.918 4.284-4.284v-3.838c.003-2.366-1.913-4.286-4.279-4.289-.002 0-.004 0-.005 0z"/><path d="m212.931 206.816c-2.367.003-4.284 1.922-4.284 4.289v3.838c.003 2.366 1.924 4.281 4.289 4.278 2.361-.003 4.275-1.917 4.278-4.278v-3.838c.001-2.367-1.916-4.287-4.283-4.289z"/><path d="m193.605 206.816c-2.367.003-4.284 1.922-4.284 4.289v3.838c.003 2.366 1.924 4.281 4.289 4.278 2.361-.003 4.275-1.917 4.278-4.278v-3.838c.001-2.367-1.916-4.287-4.283-4.289z"/><path d="m174.28 206.816c-2.367.003-4.284 1.922-4.284 4.289v3.838c.003 2.366 1.924 4.281 4.289 4.278 2.361-.003 4.275-1.917 4.278-4.278v-3.838c0-2.367-1.917-4.287-4.283-4.289z"/><path d="m154.949 206.816c-2.366 0-4.284 1.918-4.284 4.284v.005 3.838c.003 2.366 1.924 4.281 4.289 4.278 2.361-.003 4.275-1.917 4.278-4.278v-3.838c.001-2.367-1.916-4.287-4.283-4.289z"/><path d="m135.629 206.816c-2.366 0-4.284 1.918-4.284 4.284v.005 3.838c.003 2.366 1.924 4.281 4.289 4.278 2.361-.003 4.275-1.917 4.278-4.278v-3.838c0-2.367-1.917-4.287-4.283-4.289z"/></g></g></svg>