<svg id="Layer_1" enable-background="new 0 0 497 497" height="512" viewBox="0 0 497 497" width="512" xmlns="http://www.w3.org/2000/svg"><g><g><path d="m269.538 447.543c-4.143 0-7.5-3.358-7.5-7.5v-8.808h-23.133c-13.841 0-25.102-11.268-25.102-25.119v-27.309c0-4.142 3.357-7.5 7.5-7.5s7.5 3.358 7.5 7.5v27.309c0 5.58 4.531 10.119 10.102 10.119h30.633c4.143 0 7.5 3.358 7.5 7.5v16.308c0 4.142-3.357 7.5-7.5 7.5z" fill="#f5dc1d"/></g><g><path d="m298.786 447.543c-4.143 0-7.5-3.358-7.5-7.5v-8.808h-23.133c-13.841 0-25.101-11.268-25.101-25.119v-27.309c0-4.142 3.357-7.5 7.5-7.5s7.5 3.358 7.5 7.5v27.309c0 5.58 4.531 10.119 10.101 10.119h30.633c4.143 0 7.5 3.358 7.5 7.5v16.308c0 4.142-3.357 7.5-7.5 7.5z" fill="#ffe940"/></g><g><path d="m271.296 290.223-90.097-123.389c-4.657-6.378-10.559-11.745-17.347-15.775l-163.852-97.269c17.688 38.045 42.907 72.099 74.129 100.1l24.585 22.048c21.399 19.191 36.848 44.125 44.514 71.843l17.618 63.702z" fill="#7191f0"/><path d="m180.634 167.4c-4.092-6.944-9.993-12.31-16.782-16.34l-163.852-97.27c4.337 9.328 9.132 18.413 14.352 27.231l118.934 70.604c6.789 4.03 12.69 9.396 17.347 15.775l90.097 123.389-81.281 15.646 1.396 5.049 109.884-20.695z" fill="#6084f0"/><path d="m367.741 201.768 49.024-43.966c33.794-30.308 61.09-67.167 80.235-108.345l-177.347 105.281c-7.348 4.362-13.735 10.17-18.776 17.074l-84.815 116.155c-33.37-3.775-60.87-5.55-73.934-3.39-24.803 4.1-45.035 22.652-46.768 47.756-2.084 30.178 21.756 55.307 51.458 55.307h200.9c14.521 0 28.38-6.083 38.217-16.775l7.241-7.87c7.677-8.344 18.492-13.091 29.824-13.091h44.718c0-12.492-8.871-23.219-21.13-25.554 0 0-53.912-10.128-116.961-20.28l20.377-73.678c3.055-11.042 9.211-20.977 17.737-28.624z" fill="#ebf9ff"/><g fill="#d7effa"><path d="m329.627 304.071 20.377-73.677c3.054-11.044 9.21-20.979 17.737-28.625l49.024-43.966c33.794-30.308 61.09-67.167 80.235-108.345l-58.861 34.942c-16.82 27.217-37.46 51.956-61.374 73.403l-49.024 43.966c-8.526 7.647-14.682 17.582-17.737 28.625l-18.965 68.572z"/><path d="m353.177 362.996-7.241 7.87c-9.838 10.692-23.696 16.774-38.217 16.774h40c14.521 0 28.38-6.083 38.217-16.774l7.241-7.87c7.677-8.344 18.492-13.091 29.824-13.091h-40c-11.332 0-22.147 4.747-29.824 13.091z"/><path d="m176.062 287.967 2.554-3.498c-16.02-1.071-28.772-1.168-36.488.107-.181.03-.359.068-.539.1 10.376.751 22.015 1.881 34.473 3.291z"/><path d=""/></g><path d="m102.328 362.305h-63.64v-.014c0-15.174 12.301-27.475 27.475-27.475h36.165c7.587 0 13.737 6.15 13.737 13.737v.014c.001 7.587-6.15 13.738-13.737 13.738z" fill="#ffe940"/></g><g><path d="" fill="none"/><g fill="#d0e5e8"><path d=""/><path d=""/></g></g><g><path d="" fill="none"/><path d="" fill="#d0e5e8"/><path d="" fill="#d0e5e8"/><path d="m257.486 279.034 59.717-87.997c3.776-5.564 8.423-10.483 13.764-14.568l166.033-127.012-177.347 105.281c-7.348 4.362-13.735 10.17-18.776 17.074l-84.815 116.155 19.768 1.507c8.568.654 16.831-3.33 21.656-10.44z" fill="#7191f0"/></g><g><path d="m139.546 331.693c9.652 0 9.668-15 0-15-9.652 0-9.668 15 0 15z" fill="#7191f0"/></g></g></svg>