<?xml version="1.0" encoding="iso-8859-1"?>
<!-- Generator: Adobe Illustrator 19.0.0, SVG Export Plug-In . SVG Version: 6.00 Build 0)  -->
<svg version="1.1" id="Capa_1" xmlns="http://www.w3.org/2000/svg" xmlns:xlink="http://www.w3.org/1999/xlink" x="0px" y="0px"
	 viewBox="0 0 512 512" style="enable-background:new 0 0 512 512;" xml:space="preserve">
<path style="fill:#91CDFF;" d="M512,256c0,141.385-114.615,256-256,256S0,397.385,0,256S114.615,0,256,0S512,114.615,512,256z"/>
<path style="fill:#ABDCFF;" d="M180,55c0-8.284,6.716-15,15-15h120c8.284,0,15,6.716,15,15s-6.716,15-15,15H195
	C186.716,70,180,63.284,180,55z M410,385c0,8.284,6.716,15,15,15h42.677c6.513-9.555,12.388-19.577,17.581-30H425
	C416.716,370,410,376.716,410,385z M375,140H255c-8.284,0-15,6.716-15,15s6.716,15,15,15h120c8.284,0,15-6.716,15-15
	S383.284,140,375,140z M165,180H45c-8.284,0-15,6.716-15,15s6.716,15,15,15h120c8.284,0,15-6.716,15-15S173.284,180,165,180z
	 M35,280H1.129c0.947,10.185,2.491,20.196,4.596,30H35c8.284,0,15-6.716,15-15S43.284,280,35,280z M214.576,100H165
	c-8.284,0-15-6.716-15-15s-6.716-15-15-15H80.116c-9.795,9.265-18.851,19.3-27.087,30H65c8.284,0,15,6.716,15,15l0,0
	c0,8.284,6.716,15,15,15h120c8.525,0,15.389-7.111,14.983-15.725C229.603,106.207,222.653,100,214.576,100z M484.264,140h-68.841
	c-8.077,0-15.027,6.207-15.406,14.275C399.611,162.889,406.475,170,415,170h50c8.284,0,15,6.716,15,15l0,0c0,8.284,6.716,15,15,15
	h10.84C501.131,178.9,493.827,158.78,484.264,140z"/>
<path style="fill:#EBEBF0;" d="M436,37v36.985V120v318.015c-37.278,36.867-85.816,62.365-140,70.868V65c0-2.761,2.239-5,5-5h55V37
	c0-2.761,2.239-5,5-5h70C433.761,32,436,34.239,436,37z"/>
<path style="fill:#D2D2D7;" d="M326,82v420.311c-3.304,0.937-6.641,1.796-10,2.597v0.01c-0.285,0.068-0.572,0.129-0.857,0.197
	c-0.519,0.122-1.039,0.239-1.559,0.358c-5.79,1.331-11.651,2.478-17.584,3.409V65c0-2.761,2.239-5,5-5h15v20h8
	C325.105,80,326,80.895,326,82z M347.75,80h-11c-1.105,0-2,0.895-2,2v417.639c5.068-1.637,10.075-3.412,15-5.351V82
	C349.75,80.895,348.855,80,347.75,80z M419,80h-11c-1.105,0-2,0.895-2,2v381.453c5.148-3.729,10.15-7.645,15-11.738V82
	C421,80.895,420.105,80,419,80z M371.5,80h-11c-1.105,0-2,0.895-2,2v408.634c5.087-2.226,10.092-4.604,15-7.145V82
	C373.5,80.895,372.605,80,371.5,80z M395.25,80h-11c-1.105,0-2,0.895-2,2v396.74c5.113-2.905,10.114-5.983,15-9.222V82
	C397.25,80.895,396.355,80,395.25,80z"/>
<path style="fill:#505A8C;" d="M266,195v255c0,0-69.018,55.168-70.5,54.809c-45.93-11.122-86.98-34.632-119.5-66.795V195
	c0-2.761,2.239-5,5-5h34v-25c0-2.761,2.239-5,5-5h45V85c0-2.761,2.239-5,5-5s5,2.239,5,5v75h45c2.761,0,5,2.239,5,5v25h36
	C263.761,190,266,192.239,266,195z"/>
<path style="fill:#414B82;" d="M192.857,215v20c0,2.761-2.239,5-5,5h-35.714c-2.761,0-5-2.239-5-5v-20c0-2.761,2.239-5,5-5h35.714
	C190.619,210,192.857,212.239,192.857,215z M187.857,250h-35.714c-2.761,0-5,2.239-5,5v20c0,2.761,2.239,5,5,5h35.714
	c2.761,0,5-2.239,5-5v-20C192.857,252.239,190.619,250,187.857,250z M187.857,330h-35.714c-2.761,0-5,2.239-5,5v20
	c0,2.761,2.239,5,5,5h35.714c2.761,0,5-2.239,5-5v-20C192.857,332.239,190.619,330,187.857,330z M187.857,290h-35.714
	c-2.761,0-5,2.239-5,5v20c0,2.761,2.239,5,5,5h35.714c2.761,0,5-2.239,5-5v-20C192.857,292.239,190.619,290,187.857,290z
	 M130.714,210H105v-20H81c-2.761,0-5,2.239-5,5v243.015c9.031,8.932,18.726,17.192,29,24.709V440h25.714c2.761,0,5-2.239,5-5v-20
	c0-2.761-2.239-5-5-5H105v-10h25.714c2.761,0,5-2.239,5-5v-20c0-2.761-2.239-5-5-5H105v-10h25.714c2.761,0,5-2.239,5-5v-20
	c0-2.761-2.239-5-5-5H105v-10h25.714c2.761,0,5-2.239,5-5v-20c0-2.761-2.239-5-5-5H105v-10h25.714c2.761,0,5-2.239,5-5v-20
	c0-2.761-2.239-5-5-5H105v-10h25.714c2.761,0,5-2.239,5-5v-20C135.714,212.239,133.476,210,130.714,210z M187.857,370h-35.714
	c-2.761,0-5,2.239-5,5v20c0,2.761,2.239,5,5,5h35.714c2.761,0,5-2.239,5-5v-20C192.857,372.239,190.619,370,187.857,370z
	 M187.857,410h-35.714c-2.761,0-5,2.239-5,5v20c0,2.761,2.239,5,5,5h35.714c2.761,0,5-2.239,5-5v-20
	C192.857,412.239,190.619,410,187.857,410z M245,410h-35.714c-2.761,0-5,2.239-5,5v20c0,2.761,2.239,5,5,5H245c2.761,0,5-2.239,5-5
	v-20C250,412.239,247.761,410,245,410z M245,290h-35.714c-2.761,0-5,2.239-5,5v20c0,2.761,2.239,5,5,5H245c2.761,0,5-2.239,5-5v-20
	C250,292.239,247.761,290,245,290z M245,210h-35.714c-2.761,0-5,2.239-5,5v20c0,2.761,2.239,5,5,5H245c2.761,0,5-2.239,5-5v-20
	C250,212.239,247.761,210,245,210z M245,250h-35.714c-2.761,0-5,2.239-5,5v20c0,2.761,2.239,5,5,5H245c2.761,0,5-2.239,5-5v-20
	C250,252.239,247.761,250,245,250z M245,370h-35.714c-2.761,0-5,2.239-5,5v20c0,2.761,2.239,5,5,5H245c2.761,0,5-2.239,5-5v-20
	C250,372.239,247.761,370,245,370z M245,330h-35.714c-2.761,0-5,2.239-5,5v20c0,2.761,2.239,5,5,5H245c2.761,0,5-2.239,5-5v-20
	C250,332.239,247.761,330,245,330z"/>
<path style="fill:#FFE67D;" d="M316.5,305v199.789C297.101,509.49,276.845,512,256,512s-41.101-2.51-60.5-7.211V305
	c0-2.761,2.239-5,5-5H230v-15c0-2.761,2.239-5,5-5h42c2.761,0,5,2.239,5,5v15h29.5C314.261,300,316.5,302.239,316.5,305z"/>
<path style="fill:#FFD06B;" d="M293.5,332.5h-71.679c-2.939,0-5.321,2.382-5.321,5.321l0,0c0,2.939,2.382,5.321,5.321,5.321H293.5
	c4.142,0,7.5,3.358,7.5,7.5l0,0c0,4.142-3.358,7.5-7.5,7.5h-71.679c-2.939,0-5.321,2.382-5.321,5.321l0,0
	c0,2.939,2.382,5.321,5.321,5.321H293.5c4.142,0,7.5,3.358,7.5,7.5l0,0c0,4.142-3.358,7.5-7.5,7.5h-71.679
	c-2.939,0-5.321,2.382-5.321,5.321l0,0c0,2.939,2.382,5.321,5.321,5.321H293.5c4.142,0,7.5,3.358,7.5,7.5l0,0
	c0,4.142-3.358,7.5-7.5,7.5h-71.679c-2.939,0-5.321,2.382-5.321,5.321l0,0c0,2.939,2.382,5.321,5.321,5.321H293.5
	c4.142,0,7.5,3.358,7.5,7.5l0,0c0,4.142-3.358,7.5-7.5,7.5h-71.679c-2.939,0-5.321,2.382-5.321,5.321l0,0
	c0,2.939,2.382,5.321,5.321,5.321H293.5c4.142,0,7.5,3.358,7.5,7.5l0,0c0,4.142-3.358,7.5-7.5,7.5h-71.679
	c-2.939,0-5.321,2.382-5.321,5.321l0,0c0,2.939,2.382,5.321,5.321,5.321H293.5c4.142,0,7.5,3.358,7.5,7.5l0,0
	c0,4.142-3.358,7.5-7.5,7.5h-71.679c-2.939,0-5.321,2.382-5.321,5.321l0,0c0,2.939,2.382,5.321,5.321,5.321H293.5
	c4.142,0,7.5,3.358,7.5,7.5v3.554c-14.61,2.591-29.646,3.946-45,3.946s-30.39-1.355-45-3.946v-0.007c-5.223-0.93-10.39-2-15.5-3.238
	V305c0-2.761,2.239-5,5-5h16v12.179c0,2.939,2.382,5.321,5.321,5.321H293.5c4.142,0,7.5,3.358,7.5,7.5l0,0
	C301,329.142,297.642,332.5,293.5,332.5z"/>
<path style="fill:#C8E6FF;" d="M490,265c0,8.284-6.716,15-15,15H355c-8.284,0-15-6.716-15-15s6.716-15,15-15h120
	C483.284,250,490,256.716,490,265z M120,375c0-8.284-6.716-15-15-15H22.022c4.622,10.383,9.914,20.401,15.823,30H105
	C113.284,390,120,383.284,120,375z M204.576,450H155c-8.284,0-15-6.716-15-15s-6.716-15-15-15H59.439
	c20.211,24.198,44.806,44.601,72.565,60H205c8.525,0,15.389-7.111,14.983-15.725C219.603,456.207,212.653,450,204.576,450z"/>
<g>
</g>
<g>
</g>
<g>
</g>
<g>
</g>
<g>
</g>
<g>
</g>
<g>
</g>
<g>
</g>
<g>
</g>
<g>
</g>
<g>
</g>
<g>
</g>
<g>
</g>
<g>
</g>
<g>
</g>
</svg>
